<?xml version="1.0" standalone="no"?>
<!DOCTYPE svg PUBLIC "-//W3C//DTD SVG 20010904//EN"
 "http://www.w3.org/TR/2001/REC-SVG-20010904/DTD/svg10.dtd">
<svg version="1.0" xmlns="http://www.w3.org/2000/svg"
 width="512.000000pt" height="512.000000pt" viewBox="0 0 512.000000 512.000000"
 preserveAspectRatio="xMidYMid meet">
<metadata>
Created by potrace 1.14, written by Peter Selinger 2001-2017
</metadata>
<g transform="translate(0.000000,512.000000) scale(0.100000,-0.100000)"
fill="#000000" stroke="none">
<path d="M1355 4614 c-27 -9 -72 -31 -99 -49 l-49 -33 -60 25 c-74 30 -181 33
-256 8 -115 -38 -217 -143 -262 -270 -29 -82 -30 -216 -1 -303 l20 -63 -146
-120 c-81 -67 -195 -160 -254 -208 -59 -47 -107 -89 -107 -93 -1 -4 43 -33 97
-66 170 -103 216 -132 226 -142 6 -6 -11 -31 -48 -69 -83 -88 -101 -133 -101
-256 0 -90 3 -106 29 -159 54 -110 155 -189 289 -226 l57 -16 4 -174 c5 -240
37 -388 131 -612 94 -222 289 -478 453 -596 57 -40 63 -48 57 -71 -4 -14 -9
-60 -12 -101 -4 -61 -1 -86 17 -133 40 -105 129 -196 216 -219 24 -7 44 -15
44 -18 0 -8 -297 -300 -360 -353 -30 -26 -113 -103 -185 -172 l-130 -125 1685
3 1685 2 95 26 c182 51 315 127 444 255 128 129 204 262 255 444 l26 95 -1
1605 c0 1057 -4 1633 -11 1686 -6 44 -21 118 -33 165 -32 125 -126 316 -151
307 -4 -2 -330 -322 -724 -713 -394 -390 -762 -754 -818 -807 l-102 -98 -321
0 c-176 0 -429 3 -561 7 l-241 6 -5 201 c-5 216 -20 300 -72 414 -14 30 -24
56 -23 57 100 65 145 115 184 200 72 156 49 321 -63 445 -65 72 -154 114 -247
114 -39 1 -83 -2 -98 -7 -25 -6 -29 -3 -47 30 -59 115 -169 184 -299 190 -51
2 -94 -3 -127 -13z m158 -195 c46 -24 77 -63 93 -118 42 -148 113 -182 244
-120 79 37 115 34 164 -17 60 -62 65 -159 12 -242 -21 -33 -89 -102 -100 -102
-3 0 -29 25 -57 56 -93 98 -243 182 -391 220 -172 44 -409 2 -551 -98 -15 -11
-34 -18 -41 -15 -24 9 -56 113 -56 178 0 96 31 154 105 191 63 33 107 28 163
-19 26 -22 57 -45 69 -51 54 -29 121 -4 175 67 52 69 119 97 171 70z m3347
-424 c0 -399 -108 -766 -313 -1063 -73 -106 -253 -308 -398 -446 -57 -54 -301
-293 -541 -531 l-437 -433 -72 76 c-39 42 -153 160 -252 261 l-179 183 23 23
c128 119 629 606 1424 1381 526 513 726 704 736 704 5 0 9 -70 9 -155z m-3444
-115 c234 -38 430 -230 494 -484 18 -70 20 -112 20 -363 0 -263 1 -283 18
-284 9 0 250 0 535 0 348 1 517 -3 517 -10 0 -12 -338 -344 -755 -741 -165
-157 -397 -380 -515 -495 -190 -187 -217 -210 -235 -200 -11 6 -81 71 -156
146 -192 192 -297 361 -362 586 -54 183 -57 230 -57 987 l0 696 48 42 c118
104 279 147 448 120z m-716 -323 c0 -57 -3 -107 -7 -110 -5 -6 -145 64 -167
84 -13 12 131 127 162 128 9 1 12 -26 12 -102z m0 -566 c0 -99 -4 -182 -9
-185 -17 -11 -112 46 -136 82 -29 42 -33 107 -11 150 22 41 124 132 148 132 5
0 8 -81 8 -179z m3140 -1158 c0 -10 -71 -134 -113 -198 -270 -403 -726 -669
-1210 -705 -190 -14 -424 6 -434 36 -2 6 18 30 44 54 44 39 229 218 501 484
l102 101 215 -215 215 -214 122 119 c68 66 218 215 333 331 197 198 225 224
225 207z m-1739 -422 c41 -41 50 -81 29 -135 -12 -32 -65 -66 -103 -66 -118 0
-160 160 -58 223 46 29 89 22 132 -22z m-332 -256 c38 -19 65 -77 57 -121 -4
-18 -20 -47 -37 -64 -25 -25 -38 -30 -78 -30 -39 0 -52 5 -79 31 -54 53 -52
122 4 174 31 29 89 33 133 10z"/>
<path d="M1215 3665 c-106 -37 -134 -170 -50 -244 47 -41 91 -48 149 -23 164
73 70 326 -99 267z"/>
</g>
</svg>
